# xmcd
# 
# Track frame offsets:
#     150
#     19025
#     37445
#     55861
#     73710
#     93691
#     107908
#     127509
#     148301
#     163130
# 
# Disc length: 2703
# 
# Revision: 0
# Processed by: cddbd v1.5.2PL0 Copyright (c) Steve Scherf et al.
# Submitted via: fre:ac v1.0.27
# 
DISCID=930a8d0a
DTITLE=Dustin Perkins - I Wrote You A Song
DYEAR=2010
DGENRE=Country
TTITLE0=Bonnie And Clyde (release)
TTITLE1=Greener Pastures
TTITLE2=Whiskey And Me
TTITLE3=Brand New Day
TTITLE4=The Reason
TTITLE5=I'd Write You A Song
TTITLE6=If You Could Only See
TTITLE7=Leavin' Dallas
TTITLE8=Livin' My Life
TTITLE9=Take That Advice
EXTD=
EXTT0=
EXTT1=
EXTT2=
EXTT3=
EXTT4=
EXTT5=
EXTT6=
EXTT7=
EXTT8=
EXTT9=
PLAYORDER=
